<?xml version="1.0" encoding="utf-8"?>
<!-- Generator: Adobe Illustrator 16.0.0, SVG Export Plug-In . SVG Version: 6.00 Build 0)  -->
<!DOCTYPE svg PUBLIC "-//W3C//DTD SVG 1.1//EN" "http://www.w3.org/Graphics/SVG/1.1/DTD/svg11.dtd">
<svg version="1.1" id="Capa_1" xmlns="http://www.w3.org/2000/svg" xmlns:xlink="http://www.w3.org/1999/xlink" x="0px" y="0px"
	 width="73.479px" height="73.166px" viewBox="0 0 73.479 73.166" enable-background="new 0 0 73.479 73.166" xml:space="preserve">
<g>
	<rect x="26.581" y="26.751" fill="#F8B334" width="47.319" height="47.32"/>
	<g>
		<path fill="#292F41" d="M1.652,67.662l0.001-21.845l7.281-0.002V60.38l14.563-0.001v7.283H1.652z M1.651,38.534l0.001-7.281
			l7.282,0.001l0.001,7.281L1.651,38.534z M1.653,23.973L1.652,16.69h7.282v7.281L1.653,23.973z M1.653,9.409V2.128l7.281,0.001
			v7.28H1.653z"/>
	</g>
	<g>
		<path fill="#FFFFFF" d="M35.594,45.077c-0.23,0.111-0.781,0.249-1.477,0.249c-2.001,0-3.031-1.254-3.031-2.911
			c0-1.975,1.408-3.064,3.16-3.064c0.679,0,1.192,0.137,1.426,0.258l-0.275,1.029c-0.257-0.111-0.626-0.215-1.099-0.215
			c-1.03,0-1.837,0.627-1.837,1.924c0,1.158,0.686,1.889,1.847,1.889c0.402,0,0.832-0.075,1.098-0.188L35.594,45.077z"/>
		<path fill="#FFFFFF" d="M36.462,39.528c0.42-0.076,1.039-0.127,1.743-0.127c0.857,0,1.461,0.127,1.871,0.463
			c0.354,0.275,0.541,0.68,0.541,1.211c0,0.73-0.522,1.236-1.021,1.417v0.026c0.403,0.162,0.627,0.541,0.772,1.071
			c0.181,0.661,0.352,1.417,0.464,1.642h-1.34c-0.088-0.164-0.231-0.635-0.396-1.35c-0.162-0.729-0.412-0.919-0.952-0.928h-0.387
			v2.273H36.46v-5.701h0.002V39.528z M37.759,42.013h0.515c0.652,0,1.04-0.328,1.04-0.834c0-0.521-0.359-0.799-0.962-0.799
			c-0.316,0-0.499,0.018-0.593,0.043V42.013z"/>
		<path fill="#FFFFFF" d="M46.449,43.017c-0.024-0.694-0.054-1.529-0.054-2.379H46.38c-0.188,0.738-0.429,1.563-0.652,2.24
			l-0.704,2.26h-1.021l-0.618-2.231c-0.188-0.688-0.377-1.505-0.522-2.269h-0.019c-0.025,0.781-0.06,1.674-0.095,2.396l-0.11,2.197
			h-1.212l0.37-5.787h1.742l0.565,1.938c0.189,0.662,0.36,1.384,0.489,2.063h0.034c0.154-0.672,0.353-1.428,0.55-2.078l0.609-1.926
			h1.718l0.31,5.787h-1.271L46.449,43.017z"/>
		<path fill="#FFFFFF" d="M31.344,54.627c0.335,0.214,0.815,0.378,1.331,0.378c0.765,0,1.21-0.396,1.21-0.988
			c0-0.531-0.308-0.85-1.09-1.142c-0.943-0.344-1.528-0.843-1.528-1.649c0-0.9,0.747-1.569,1.872-1.569
			c0.584,0,1.021,0.138,1.271,0.282l-0.206,0.609c-0.182-0.111-0.566-0.275-1.092-0.275c-0.788,0-1.091,0.475-1.091,0.867
			c0,0.541,0.354,0.811,1.15,1.117c0.979,0.387,1.469,0.85,1.469,1.7c0,0.894-0.65,1.675-2.019,1.675
			c-0.56,0-1.168-0.172-1.479-0.378L31.344,54.627z"/>
		<path fill="#FFFFFF" d="M40.55,52.995c-0.043-0.809-0.095-1.786-0.095-2.499h-0.02c-0.206,0.67-0.438,1.399-0.729,2.198
			l-1.021,2.808H38.12l-0.944-2.757c-0.274-0.824-0.498-1.563-0.662-2.249h-0.017c-0.019,0.722-0.063,1.683-0.11,2.56l-0.156,2.48
			h-0.712l0.402-5.787h0.954l0.985,2.799c0.241,0.713,0.432,1.35,0.584,1.949h0.02c0.154-0.583,0.359-1.219,0.618-1.949l1.028-2.799
			h0.953l0.36,5.787h-0.738L40.55,52.995z"/>
		<path fill="#FFFFFF" d="M43.512,53.716l-0.601,1.82h-0.772l1.966-5.787h0.901l1.976,5.787h-0.8l-0.617-1.82H43.512z
			 M45.411,53.132l-0.576-1.666c-0.12-0.377-0.206-0.721-0.292-1.056h-0.024c-0.078,0.335-0.173,0.694-0.284,1.048l-0.565,1.674
			H45.411z"/>
		<path fill="#FFFFFF" d="M47.832,49.835c0.378-0.077,0.928-0.129,1.434-0.129c0.8,0,1.323,0.154,1.687,0.48
			c0.281,0.248,0.453,0.645,0.453,1.1c0,0.756-0.487,1.262-1.091,1.469v0.025c0.438,0.154,0.704,0.566,0.852,1.168
			c0.188,0.807,0.326,1.365,0.438,1.588H50.83c-0.097-0.162-0.226-0.661-0.379-1.383c-0.174-0.799-0.489-1.098-1.167-1.125h-0.705
			v2.508h-0.747V49.835z M48.579,52.463h0.765c0.799,0,1.306-0.438,1.306-1.101c0-0.746-0.541-1.072-1.332-1.072
			c-0.357,0-0.607,0.033-0.736,0.068L48.579,52.463L48.579,52.463z"/>
		<path fill="#FFFFFF" d="M53.594,50.384h-1.761v-0.635h4.286v0.635h-1.771v5.152h-0.755L53.594,50.384L53.594,50.384z"/>
	</g>
	<g>
		<polygon fill="#F8B334" points="59.905,23.972 59.905,9.409 45.34,9.409 45.341,2.128 67.186,2.128 67.185,23.972 		"/>
	</g>
	<line fill="none" stroke="#292F41" stroke-miterlimit="10" x1="4.99" y1="9.062" x2="35.992" y2="9.062"/>
	<line fill="none" stroke="#292F41" stroke-miterlimit="10" x1="5.685" y1="23.771" x2="23.123" y2="23.771"/>
	<line fill="none" stroke="#292F41" stroke-miterlimit="10" x1="5.268" y1="5.805" x2="5.268" y2="37.112"/>
	<path fill="#292F41" d="M19.512,20.502c-0.509,0-0.945-0.181-1.31-0.544c-0.361-0.363-0.544-0.801-0.544-1.309
		c0-0.511,0.183-0.947,0.544-1.31c0.362-0.363,0.801-0.545,1.31-0.545c0.51,0,0.945,0.182,1.31,0.545
		c0.361,0.362,0.545,0.799,0.545,1.31c0,0.508-0.184,0.944-0.545,1.309C20.457,20.321,20.021,20.502,19.512,20.502z M15.806,24.208
		v-1.297c0-0.264,0.067-0.504,0.202-0.725s0.313-0.389,0.539-0.505c0.479-0.239,0.965-0.419,1.46-0.538
		c0.492-0.119,0.995-0.179,1.504-0.179c0.51,0,1.012,0.06,1.506,0.179s0.979,0.299,1.46,0.538c0.224,0.116,0.402,0.284,0.538,0.505
		c0.135,0.221,0.202,0.461,0.202,0.725v1.297H15.806z M16.733,23.28h5.56v-0.369c0-0.086-0.021-0.162-0.063-0.232
		c-0.042-0.068-0.098-0.123-0.168-0.162c-0.417-0.208-0.838-0.363-1.262-0.469c-0.426-0.104-0.854-0.156-1.286-0.156
		s-0.86,0.053-1.284,0.156c-0.426,0.104-0.847,0.261-1.263,0.469c-0.069,0.039-0.126,0.094-0.169,0.162
		c-0.041,0.07-0.063,0.146-0.063,0.232L16.733,23.28L16.733,23.28z M19.512,19.575c0.255,0,0.475-0.09,0.654-0.271
		c0.181-0.181,0.271-0.4,0.271-0.654s-0.091-0.473-0.271-0.653c-0.181-0.181-0.399-0.272-0.654-0.272
		c-0.254,0-0.474,0.091-0.654,0.272c-0.181,0.181-0.271,0.399-0.271,0.653s0.09,0.474,0.271,0.654
		C19.038,19.485,19.258,19.575,19.512,19.575z"/>
	<path fill="#292F41" d="M18.918,5.757c-0.358,0-0.663-0.125-0.913-0.376c-0.252-0.25-0.377-0.555-0.377-0.914
		c0-0.158,0.023-0.307,0.075-0.445c0.05-0.141,0.125-0.268,0.226-0.383c-0.028-0.07-0.05-0.146-0.063-0.225
		c-0.018-0.078-0.022-0.158-0.022-0.237c0-0.271,0.074-0.514,0.221-0.725c0.146-0.212,0.339-0.368,0.575-0.468
		c0.146-0.165,0.313-0.294,0.504-0.387c0.195-0.094,0.405-0.141,0.636-0.141c0.229,0,0.44,0.047,0.636,0.141
		c0.191,0.093,0.36,0.222,0.505,0.387c0.235,0.1,0.429,0.256,0.575,0.468c0.146,0.211,0.221,0.454,0.221,0.725
		c0,0.079-0.008,0.159-0.022,0.237c-0.014,0.078-0.033,0.154-0.063,0.225c0.101,0.115,0.177,0.242,0.227,0.383
		c0.051,0.139,0.075,0.287,0.075,0.445c0,0.359-0.125,0.664-0.376,0.914C21.304,5.632,21,5.757,20.641,5.757H18.918z M18.918,4.897
		h1.72c0.122,0,0.225-0.043,0.306-0.128c0.083-0.086,0.124-0.187,0.124-0.302c0-0.051-0.01-0.096-0.024-0.139
		c-0.02-0.044-0.044-0.088-0.08-0.129c-0.08-0.094-0.132-0.186-0.157-0.274c-0.023-0.09-0.037-0.175-0.037-0.253
		c0-0.115,0.017-0.213,0.044-0.295c0.027-0.083,0.043-0.149,0.043-0.2c0-0.085-0.024-0.164-0.075-0.235
		c-0.05-0.072-0.114-0.125-0.192-0.162c-0.065-0.028-0.123-0.061-0.177-0.097c-0.056-0.035-0.104-0.083-0.146-0.139
		C20.229,2.5,20.17,2.452,20.087,2.398c-0.082-0.054-0.186-0.081-0.308-0.081c-0.12,0-0.226,0.028-0.307,0.086
		c-0.082,0.057-0.142,0.107-0.178,0.151c-0.042,0.049-0.091,0.093-0.146,0.128c-0.054,0.036-0.111,0.068-0.177,0.097
		c-0.08,0.037-0.145,0.09-0.193,0.162c-0.051,0.071-0.074,0.15-0.074,0.235c0,0.051,0.014,0.117,0.043,0.2
		c0.027,0.082,0.043,0.18,0.043,0.295c0,0.078-0.014,0.163-0.038,0.253c-0.024,0.089-0.077,0.181-0.155,0.274
		c-0.036,0.041-0.063,0.085-0.08,0.129c-0.018,0.043-0.028,0.088-0.028,0.139c0,0.115,0.042,0.216,0.124,0.302
		S18.797,4.897,18.918,4.897z M16.339,9.197V7.993c0-0.244,0.062-0.467,0.188-0.671c0.126-0.204,0.292-0.36,0.5-0.468
		c0.443-0.223,0.896-0.389,1.354-0.5c0.459-0.111,0.925-0.166,1.396-0.166c0.473,0,0.938,0.055,1.397,0.166
		c0.457,0.111,0.91,0.277,1.354,0.5c0.207,0.107,0.374,0.264,0.499,0.468c0.125,0.204,0.188,0.427,0.188,0.671v1.204H16.339z
		 M17.198,8.337h5.158V7.993c0-0.078-0.02-0.15-0.059-0.213c-0.039-0.066-0.092-0.115-0.156-0.152
		c-0.387-0.192-0.775-0.338-1.171-0.436c-0.396-0.097-0.792-0.145-1.193-0.145c-0.399,0-0.799,0.048-1.193,0.145
		c-0.395,0.097-0.784,0.243-1.17,0.435c-0.063,0.037-0.116,0.086-0.155,0.152c-0.04,0.063-0.063,0.135-0.063,0.213
		C17.198,7.992,17.198,8.337,17.198,8.337z"/>
	<path fill="#292F41" d="M34.44,5.869c-0.502,0-0.933-0.179-1.291-0.536c-0.354-0.358-0.536-0.788-0.536-1.29V2.445
		c0-0.192,0.066-0.353,0.2-0.485c0.133-0.134,0.295-0.2,0.485-0.2c0.113,0,0.223,0.026,0.325,0.079
		c0.103,0.055,0.185,0.131,0.245,0.229c0.061-0.098,0.143-0.174,0.244-0.229c0.104-0.053,0.213-0.079,0.325-0.079
		c0.114,0,0.225,0.026,0.326,0.079c0.104,0.055,0.186,0.131,0.245,0.229c0.061-0.098,0.143-0.174,0.245-0.229
		c0.103-0.053,0.212-0.079,0.325-0.079c0.188,0,0.353,0.066,0.483,0.2c0.133,0.133,0.2,0.293,0.2,0.485v1.599
		c0,0.502-0.18,0.932-0.537,1.29C35.373,5.691,34.942,5.869,34.44,5.869z M34.44,4.955c0.251,0,0.469-0.088,0.646-0.268
		c0.18-0.18,0.269-0.394,0.269-0.645V2.901h-1.826v1.143c0,0.251,0.092,0.465,0.271,0.645C33.973,4.868,34.189,4.955,34.44,4.955z
		 M30.786,9.524v-1.28c0-0.26,0.065-0.497,0.198-0.713c0.136-0.219,0.312-0.383,0.531-0.498c0.471-0.235,0.951-0.413,1.438-0.531
		c0.485-0.117,0.98-0.176,1.482-0.176s0.997,0.059,1.485,0.176c0.486,0.118,0.966,0.296,1.438,0.531
		c0.221,0.115,0.396,0.279,0.53,0.498c0.133,0.216,0.2,0.453,0.2,0.713v1.279L30.786,9.524L30.786,9.524z M31.7,8.61h5.479V8.244
		c0-0.084-0.021-0.16-0.063-0.228c-0.04-0.069-0.099-0.122-0.164-0.161c-0.411-0.205-0.827-0.359-1.245-0.461
		c-0.419-0.104-0.841-0.155-1.27-0.155c-0.427,0-0.85,0.052-1.267,0.155c-0.419,0.102-0.834,0.256-1.245,0.461
		c-0.068,0.039-0.123,0.092-0.166,0.161c-0.041,0.068-0.062,0.145-0.062,0.228L31.7,8.61L31.7,8.61z"/>
</g>
</svg>
