<?xml version="1.0" encoding="utf-8"?>
<!-- Generator: Adobe Illustrator 16.0.0, SVG Export Plug-In . SVG Version: 6.00 Build 0)  -->
<!DOCTYPE svg PUBLIC "-//W3C//DTD SVG 1.1//EN" "http://www.w3.org/Graphics/SVG/1.1/DTD/svg11.dtd">
<svg version="1.1" id="Capa_1" xmlns="http://www.w3.org/2000/svg" xmlns:xlink="http://www.w3.org/1999/xlink" x="0px" y="0px"
	 width="73.479px" height="73.166px" viewBox="0 0 73.479 73.166" enable-background="new 0 0 73.479 73.166" xml:space="preserve">
<g>
	<rect x="26.365" y="26.066" fill="#E2007A" width="48.591" height="48.59"/>
	<g enable-background="new    ">
		<path fill="#FFFFFF" d="M32.927,45.098c-0.607,0-1.223-0.04-1.455-0.08c-0.104-0.016-0.168-0.079-0.168-0.199v-5.493
			c0-0.112,0.064-0.184,0.168-0.2c0.232-0.04,0.848-0.08,1.455-0.08c1.479,0,2.423,0.76,2.423,2.487v1.079
			C35.35,44.322,34.407,45.098,32.927,45.098z M34.623,41.532c0-1.447-0.736-1.863-1.695-1.863c-0.375,0-0.624,0.008-0.887,0.024
			v4.765c0.256,0.017,0.512,0.017,0.887,0.017c0.959,0,1.695-0.424,1.695-1.863V41.532z"/>
		<path fill="#FFFFFF" d="M39.695,45.058c-0.304,0.032-1.088,0.04-1.559,0.04c-1.12,0-1.704-0.424-1.704-1.487v-3.078
			c0-1.063,0.584-1.487,1.704-1.487c0.471,0,1.223,0.017,1.559,0.048c0.048,0.009,0.08,0.064,0.08,0.112v0.399
			c0,0.057-0.032,0.097-0.088,0.097h-1.543c-0.848,0-0.984,0.224-0.984,0.831v1.111h2.455c0.088,0,0.16,0.072,0.16,0.16v0.304
			c0,0.088-0.072,0.16-0.16,0.16H37.16v1.343c0,0.608,0.136,0.832,0.984,0.832h1.543c0.056,0,0.088,0.04,0.088,0.096v0.408
			C39.775,44.994,39.742,45.05,39.695,45.058z"/>
		<path fill="#FFFFFF" d="M42.24,45.098c-0.559,0-0.975-0.056-1.326-0.111c-0.137-0.024-0.152-0.057-0.152-0.145v-0.319
			c0-0.088,0.063-0.128,0.136-0.128c0.008,0,0.017,0,0.024,0c0.367,0.032,0.951,0.048,1.318,0.048c0.96,0,1.216-0.384,1.216-0.943
			c0-0.4-0.231-0.624-0.96-1.071l-0.775-0.472c-0.735-0.448-1.104-0.855-1.104-1.495c0-0.968,0.695-1.416,1.911-1.416
			c0.472,0,1.087,0.048,1.392,0.097c0.08,0.016,0.136,0.056,0.136,0.136v0.344c0,0.08-0.056,0.128-0.136,0.128
			c-0.008,0-0.008,0-0.016,0c-0.353-0.024-0.912-0.048-1.376-0.048c-0.823,0-1.175,0.176-1.175,0.76c0,0.375,0.264,0.6,0.871,0.967
			l0.736,0.44c0.927,0.551,1.255,0.991,1.255,1.631C44.215,44.267,43.816,45.098,42.24,45.098z"/>
		<path fill="#FFFFFF" d="M48.902,39.725h-1.559v5.157c0,0.08-0.057,0.16-0.145,0.16h-0.439c-0.08,0-0.144-0.072-0.144-0.16v-5.157
			h-1.56c-0.088,0-0.16-0.04-0.16-0.128v-0.352c0-0.08,0.072-0.144,0.16-0.144h3.846c0.088,0,0.152,0.056,0.152,0.144v0.352
			C49.054,39.677,48.99,39.725,48.902,39.725z"/>
		<path fill="#FFFFFF" d="M50.624,45.042h-0.439c-0.08,0-0.145-0.072-0.145-0.16v-5.629c0-0.08,0.057-0.151,0.145-0.151h0.439
			c0.08,0,0.144,0.063,0.144,0.151v5.629C50.768,44.962,50.712,45.042,50.624,45.042z"/>
		<path fill="#FFFFFF" d="M56.054,45.042h-0.495c-0.128,0-0.216-0.048-0.256-0.128l-2.471-4.693
			c-0.009-0.016-0.017-0.024-0.024-0.024S52.8,40.205,52.8,40.221v4.669c0,0.08-0.064,0.152-0.144,0.152H52.24
			c-0.08,0-0.144-0.016-0.144-0.096v-5.621c0-0.128,0.104-0.224,0.231-0.224h0.44c0.223,0,0.264,0.04,0.327,0.159l2.454,4.67
			l0.017,0.023c0.008,0,0.008-0.016,0.008-0.023v-4.678c0-0.08,0.063-0.151,0.144-0.151h0.424c0.088,0,0.145,0.071,0.145,0.151
			v5.558C56.286,44.938,56.183,45.042,56.054,45.042z"/>
		<path fill="#FFFFFF" d="M59.559,45.098c-1.255,0-2.167-0.735-2.167-2.511v-1.031c0-1.774,0.912-2.511,2.167-2.511
			s2.159,0.736,2.159,2.511v1.031C61.718,44.362,60.814,45.098,59.559,45.098z M60.982,41.556c0-1.343-0.543-1.854-1.423-1.854
			c-0.872,0-1.431,0.512-1.431,1.854v1.031c0,1.344,0.551,1.855,1.431,1.855c0.872,0,1.423-0.512,1.423-1.855V41.556z"/>
		<path fill="#FFFFFF" d="M64.224,45.098c-0.561,0-0.977-0.056-1.328-0.111c-0.136-0.024-0.151-0.057-0.151-0.145v-0.319
			c0-0.088,0.063-0.128,0.136-0.128c0.008,0,0.016,0,0.023,0c0.368,0.032,0.952,0.048,1.32,0.048c0.959,0,1.215-0.384,1.215-0.943
			c0-0.4-0.232-0.624-0.959-1.071l-0.776-0.472c-0.735-0.448-1.103-0.855-1.103-1.495c0-0.968,0.695-1.416,1.91-1.416
			c0.472,0,1.088,0.048,1.392,0.097c0.079,0.016,0.136,0.056,0.136,0.136v0.344c0,0.08-0.057,0.128-0.136,0.128
			c-0.009,0-0.009,0-0.017,0c-0.352-0.024-0.911-0.048-1.375-0.048c-0.823,0-1.176,0.176-1.176,0.76c0,0.375,0.265,0.6,0.872,0.967
			l0.735,0.44c0.928,0.551,1.256,0.991,1.256,1.631C66.198,44.267,65.798,45.098,64.224,45.098z"/>
	</g>
	<g enable-background="new    ">
		<path fill="#FFFFFF" d="M33.353,53.18c-0.229,0-0.582-0.026-0.785-0.035v2.302c0,0.098-0.07,0.177-0.167,0.177h-0.882
			c-0.097,0-0.176-0.079-0.176-0.177v-6.067c0-0.177,0.105-0.238,0.282-0.265C32.083,49.044,32.709,49,33.353,49
			c1.358,0,2.54,0.476,2.54,2.037v0.079C35.893,52.678,34.712,53.18,33.353,53.18z M34.676,51.037c0-0.741-0.441-1.023-1.323-1.023
			c-0.185,0-0.626,0.018-0.785,0.035v2.1c0.141,0.009,0.635,0.026,0.785,0.026c0.953,0,1.323-0.353,1.323-1.059V51.037z"/>
		<path fill="#FFFFFF" d="M41.087,55.623h-0.936c-0.078,0-0.149-0.07-0.167-0.15l-0.405-1.675H37.55l-0.405,1.675
			c-0.018,0.08-0.088,0.15-0.167,0.15h-0.935c-0.088,0-0.159-0.062-0.159-0.15c0-0.009,0.009-0.026,0.009-0.044l1.447-5.529
			C37.55,49.079,38.186,49,38.565,49c0.38,0,1.015,0.079,1.226,0.899l1.447,5.529c0,0.018,0.008,0.035,0.008,0.044
			C41.245,55.562,41.175,55.623,41.087,55.623z M38.706,50.173c-0.027-0.106-0.053-0.142-0.142-0.142
			c-0.088,0-0.114,0.035-0.142,0.142l-0.635,2.619h1.553L38.706,50.173z"/>
		<path fill="#FFFFFF" d="M43.723,55.693c-0.661,0-1.138-0.062-1.562-0.158c-0.088-0.018-0.167-0.08-0.167-0.177v-0.635
			c0-0.098,0.079-0.168,0.167-0.168c0.01,0,0.01,0,0.018,0c0.354,0.044,1.235,0.089,1.562,0.089c0.785,0,1.023-0.282,1.023-0.794
			c0-0.345-0.167-0.521-0.75-0.864l-1.164-0.697c-0.82-0.485-1.04-0.996-1.04-1.614c0-0.97,0.564-1.675,2.204-1.675
			c0.583,0,1.394,0.088,1.693,0.158c0.089,0.018,0.159,0.079,0.159,0.168v0.652c0,0.088-0.063,0.159-0.15,0.159
			c-0.009,0-0.009,0-0.018,0c-0.582-0.054-1.164-0.089-1.737-0.089c-0.653,0-0.926,0.229-0.926,0.626
			c0,0.292,0.149,0.468,0.724,0.785l1.058,0.591c0.97,0.538,1.226,1.103,1.226,1.8C46.042,54.741,45.488,55.693,43.723,55.693z"/>
		<path fill="#FFFFFF" d="M48.749,55.693c-0.662,0-1.139-0.062-1.562-0.158c-0.088-0.018-0.167-0.08-0.167-0.177v-0.635
			c0-0.098,0.079-0.168,0.167-0.168c0.009,0,0.009,0,0.018,0c0.353,0.044,1.235,0.089,1.562,0.089c0.785,0,1.023-0.282,1.023-0.794
			c0-0.345-0.168-0.521-0.75-0.864l-1.164-0.697c-0.82-0.485-1.041-0.996-1.041-1.614c0-0.97,0.564-1.675,2.205-1.675
			c0.582,0,1.393,0.088,1.693,0.158c0.088,0.018,0.158,0.079,0.158,0.168v0.652c0,0.088-0.062,0.159-0.149,0.159
			c-0.009,0-0.009,0-0.019,0c-0.582-0.054-1.164-0.089-1.736-0.089c-0.653,0-0.927,0.229-0.927,0.626
			c0,0.292,0.15,0.468,0.724,0.785l1.059,0.591c0.97,0.538,1.226,1.103,1.226,1.8C51.069,54.741,50.513,55.693,48.749,55.693z"/>
	</g>
	<g>
		<polygon fill="#E2007A" points="60.583,23.213 60.583,8.259 45.626,8.258 45.627,0.781 68.06,0.781 68.059,23.213 		"/>
	</g>
	<g>
		<path fill="#292F41" d="M0.766,68.075l0.001-22.432l7.478-0.002v14.955h14.954v7.479H0.766z M0.765,38.166l0.001-7.477h7.479
			v7.477H0.765z M0.767,23.213l-0.001-7.477h7.479v7.477H0.767z M0.767,8.26V0.782l7.478,0.001v7.476L0.767,8.26z M15.721,8.259
			V0.782l7.478,0.001V8.26L15.721,8.259z M30.674,8.259l-0.001-7.478h7.478v7.478H30.674z"/>
	</g>
	<g>
		<path fill="#292F41" d="M16.405,16.7c-0.372,0.005-0.688,0.14-0.946,0.405c-0.257,0.264-0.382,0.582-0.378,0.955
			c0.006,0.373,0.141,0.688,0.404,0.944c0.265,0.259,0.584,0.384,0.956,0.379c0.371-0.005,0.688-0.139,0.945-0.404
			c0.256-0.264,0.383-0.581,0.378-0.954c-0.005-0.375-0.14-0.689-0.404-0.946C17.096,16.821,16.776,16.694,16.405,16.7z
			 M20.923,16.684l-5.736,5.895l1.271,1.234l5.734-5.893L20.923,16.684z M20.939,21.112c-0.374,0.005-0.69,0.14-0.947,0.404
			c-0.256,0.264-0.384,0.583-0.378,0.956c0.008,0.373,0.142,0.687,0.405,0.945c0.265,0.256,0.583,0.383,0.955,0.378
			s0.688-0.14,0.944-0.404c0.258-0.266,0.383-0.583,0.38-0.956c-0.007-0.373-0.143-0.688-0.405-0.945
			C21.63,21.234,21.311,21.105,20.939,21.112z"/>
	</g>
	<path fill="#292F41" d="M18.328,38.962c-0.09,0-0.177-0.018-0.267-0.053c-0.089-0.035-0.167-0.09-0.236-0.158l-2.527-2.528
		c-0.071-0.07-0.123-0.148-0.156-0.233c-0.031-0.086-0.048-0.173-0.048-0.261s0.017-0.177,0.048-0.266
		c0.033-0.088,0.085-0.168,0.156-0.238l3.11-3.119c0.063-0.064,0.142-0.115,0.229-0.154c0.088-0.038,0.18-0.058,0.274-0.058h2.533
		c0.195,0,0.361,0.069,0.5,0.208c0.14,0.139,0.207,0.305,0.207,0.499v2.536c0,0.094-0.017,0.184-0.052,0.27
		c-0.036,0.086-0.085,0.16-0.149,0.225l-3.119,3.12c-0.07,0.069-0.15,0.123-0.239,0.158C18.504,38.944,18.417,38.962,18.328,38.962z
		 M18.328,38.256l3.117-3.128v-2.527H18.92l-3.12,3.128L18.328,38.256z M20.563,34.014c0.147,0,0.273-0.051,0.376-0.154
		c0.104-0.104,0.155-0.228,0.155-0.375c0-0.148-0.052-0.272-0.155-0.376c-0.103-0.103-0.229-0.154-0.376-0.154
		c-0.146,0-0.271,0.052-0.376,0.154c-0.103,0.104-0.153,0.228-0.153,0.376c0,0.147,0.052,0.271,0.153,0.375
		C20.291,33.963,20.417,34.014,20.563,34.014z"/>
	<path fill="#292F41" d="M31.44,21.741c-0.209,0-0.387-0.073-0.535-0.224c-0.147-0.147-0.223-0.326-0.223-0.534v-4.547
		c0-0.208,0.074-0.387,0.223-0.534c0.148-0.15,0.326-0.224,0.535-0.224h6.063c0.208,0,0.387,0.073,0.533,0.224
		c0.148,0.147,0.224,0.326,0.224,0.534v2.274h-6.82v2.272h3.79v0.758L31.44,21.741L31.44,21.741z M31.44,17.194h6.063v-0.758H31.44
		V17.194z M37.124,22.499v-1.137h-1.138v-0.757h1.138v-1.138h0.758v1.138h1.138v0.757h-1.138v1.137H37.124z M31.44,20.983v-4.547
		V20.983z"/>
</g>
</svg>
