<?xml version="1.0" encoding="utf-8"?>
<!-- Generator: Adobe Illustrator 16.0.0, SVG Export Plug-In . SVG Version: 6.00 Build 0)  -->
<!DOCTYPE svg PUBLIC "-//W3C//DTD SVG 1.1//EN" "http://www.w3.org/Graphics/SVG/1.1/DTD/svg11.dtd">
<svg version="1.1" id="Capa_1" xmlns="http://www.w3.org/2000/svg" xmlns:xlink="http://www.w3.org/1999/xlink" x="0px" y="0px"
	 width="73.479px" height="73.166px" viewBox="0 0 73.479 73.166" enable-background="new 0 0 73.479 73.166" xml:space="preserve">
<g>
	<rect x="26.366" y="25.904" fill="#E8522E" width="48.356" height="48.355"/>
	<g>
		<path fill="#292F41" d="M0.893,67.711V45.388h7.44v14.883l14.882-0.002v7.442H0.893z M0.891,37.944l0.002-7.438h7.44l0.001,7.441
			L0.891,37.944z M0.893,23.064v-7.441h7.44v7.441H0.893z M0.893,8.184V0.742l7.44,0.002v7.439L0.893,8.184L0.893,8.184z
			 M19.425,7.037l-1.802-1.035c-0.113-0.066-0.202-0.154-0.267-0.262c-0.062-0.107-0.094-0.227-0.094-0.361v-2.07
			c0-0.133,0.032-0.252,0.094-0.359c0.063-0.109,0.152-0.195,0.267-0.262l1.802-1.035c0.113-0.066,0.235-0.1,0.36-0.1
			c0.127,0,0.245,0.033,0.359,0.1l1.801,1.035c0.114,0.066,0.202,0.152,0.267,0.262c0.063,0.107,0.096,0.227,0.096,0.359v2.07
			c0,0.135-0.032,0.254-0.096,0.361c-0.064,0.107-0.151,0.195-0.267,0.262l-1.801,1.035c-0.114,0.066-0.232,0.1-0.359,0.1
			C19.66,7.137,19.538,7.104,19.425,7.037z M19.425,6.209V4.553l-1.439-0.84v1.666L19.425,6.209z M20.146,6.209l1.44-0.83V3.713
			l-1.44,0.84V6.209z M16.183,2.543v-1.08c0-0.197,0.071-0.367,0.212-0.508c0.143-0.143,0.312-0.213,0.51-0.213h1.081v0.721h-1.081
			v1.08H16.183z M17.985,7.947h-1.081c-0.198,0-0.367-0.07-0.51-0.213c-0.141-0.141-0.212-0.311-0.212-0.508V6.145h0.722v1.082
			h1.081V7.947z M21.586,7.947v-0.72h1.081V6.145h0.721v1.082c0,0.197-0.07,0.367-0.213,0.508c-0.14,0.143-0.312,0.213-0.508,0.213
			L21.586,7.947L21.586,7.947z M22.667,2.543v-1.08h-1.081V0.742h1.081c0.196,0,0.368,0.07,0.508,0.213
			c0.143,0.141,0.213,0.311,0.213,0.508v1.08H22.667z M19.785,3.932l1.423-0.838l-1.423-0.82l-1.425,0.82L19.785,3.932z"/>
	</g>
	<g enable-background="new    ">
		<path fill="#FFFFFF" d="M32.911,44.844c-0.607,0-1.223-0.04-1.455-0.08c-0.104-0.016-0.168-0.079-0.168-0.199v-5.493
			c0-0.112,0.064-0.184,0.168-0.2c0.232-0.04,0.848-0.08,1.455-0.08c1.479,0,2.423,0.76,2.423,2.487v1.079
			C35.334,44.068,34.39,44.844,32.911,44.844z M34.606,41.278c0-1.447-0.736-1.863-1.695-1.863c-0.375,0-0.624,0.008-0.887,0.024
			v4.765c0.256,0.017,0.512,0.017,0.887,0.017c0.959,0,1.695-0.424,1.695-1.863V41.278z"/>
		<path fill="#FFFFFF" d="M39.678,44.804c-0.304,0.032-1.087,0.04-1.56,0.04c-1.119,0-1.703-0.424-1.703-1.487v-3.078
			c0-1.063,0.584-1.487,1.703-1.487c0.473,0,1.224,0.017,1.56,0.048c0.048,0.009,0.08,0.064,0.08,0.112v0.399
			c0,0.057-0.032,0.097-0.088,0.097h-1.543c-0.848,0-0.984,0.224-0.984,0.831v1.111h2.455c0.089,0,0.16,0.072,0.16,0.16v0.304
			c0,0.088-0.071,0.16-0.16,0.16h-2.455v1.343c0,0.608,0.136,0.832,0.984,0.832h1.543c0.056,0,0.088,0.04,0.088,0.096v0.408
			C39.758,44.74,39.726,44.796,39.678,44.804z"/>
		<path fill="#FFFFFF" d="M42.224,44.844c-0.561,0-0.977-0.056-1.328-0.111c-0.136-0.024-0.151-0.057-0.151-0.145v-0.319
			c0-0.088,0.063-0.128,0.136-0.128c0.008,0,0.016,0,0.023,0c0.368,0.032,0.952,0.048,1.32,0.048c0.959,0,1.215-0.384,1.215-0.943
			c0-0.4-0.232-0.624-0.959-1.071l-0.776-0.472c-0.735-0.448-1.103-0.855-1.103-1.495c0-0.968,0.695-1.416,1.91-1.416
			c0.472,0,1.088,0.048,1.392,0.097c0.079,0.016,0.136,0.056,0.136,0.136v0.344c0,0.08-0.057,0.128-0.136,0.128
			c-0.009,0-0.009,0-0.017,0c-0.352-0.024-0.911-0.048-1.375-0.048c-0.823,0-1.176,0.176-1.176,0.76c0,0.375,0.265,0.6,0.872,0.967
			l0.735,0.44c0.928,0.551,1.256,0.991,1.256,1.631C44.198,44.013,43.798,44.844,42.224,44.844z"/>
		<path fill="#FFFFFF" d="M48.886,39.471h-1.56v5.157c0,0.08-0.056,0.16-0.144,0.16h-0.44c-0.079,0-0.144-0.072-0.144-0.16v-5.157
			H45.04c-0.089,0-0.16-0.04-0.16-0.128v-0.352c0-0.08,0.071-0.144,0.16-0.144h3.846c0.088,0,0.151,0.056,0.151,0.144v0.352
			C49.037,39.423,48.974,39.471,48.886,39.471z"/>
		<path fill="#FFFFFF" d="M50.607,44.788h-0.439c-0.08,0-0.144-0.072-0.144-0.16v-5.629c0-0.08,0.056-0.151,0.144-0.151h0.439
			c0.08,0,0.145,0.063,0.145,0.151v5.629C50.751,44.708,50.696,44.788,50.607,44.788z"/>
		<path fill="#FFFFFF" d="M56.038,44.788h-0.496c-0.128,0-0.216-0.048-0.256-0.128l-2.471-4.693
			c-0.008-0.016-0.016-0.024-0.023-0.024c-0.009,0-0.009,0.009-0.009,0.024v4.669c0,0.08-0.063,0.152-0.144,0.152h-0.416
			c-0.08,0-0.145-0.016-0.145-0.096v-5.621c0-0.128,0.104-0.224,0.232-0.224h0.439c0.225,0,0.264,0.04,0.328,0.159l2.455,4.67
			L55.55,43.7c0.008,0,0.008-0.016,0.008-0.023v-4.678c0-0.08,0.064-0.151,0.145-0.151h0.424c0.088,0,0.144,0.071,0.144,0.151v5.558
			C56.27,44.685,56.165,44.788,56.038,44.788z"/>
		<path fill="#FFFFFF" d="M59.542,44.844c-1.256,0-2.167-0.735-2.167-2.511v-1.031c0-1.774,0.911-2.511,2.167-2.511
			s2.158,0.736,2.158,2.511v1.031C61.7,44.108,60.798,44.844,59.542,44.844z M60.966,41.302c0-1.343-0.545-1.854-1.424-1.854
			c-0.871,0-1.432,0.512-1.432,1.854v1.031c0,1.344,0.553,1.855,1.432,1.855c0.871,0,1.424-0.512,1.424-1.855V41.302z"/>
		<path fill="#FFFFFF" d="M64.206,44.844c-0.559,0-0.975-0.056-1.326-0.111c-0.137-0.024-0.152-0.057-0.152-0.145v-0.319
			c0-0.088,0.063-0.128,0.136-0.128c0.008,0,0.017,0,0.024,0c0.367,0.032,0.951,0.048,1.318,0.048c0.96,0,1.216-0.384,1.216-0.943
			c0-0.4-0.231-0.624-0.96-1.071l-0.775-0.472c-0.735-0.448-1.104-0.855-1.104-1.495c0-0.968,0.695-1.416,1.911-1.416
			c0.472,0,1.087,0.048,1.392,0.097c0.08,0.016,0.136,0.056,0.136,0.136v0.344c0,0.08-0.056,0.128-0.136,0.128
			c-0.008,0-0.008,0-0.016,0c-0.353-0.024-0.912-0.048-1.376-0.048c-0.823,0-1.175,0.176-1.175,0.76c0,0.375,0.264,0.6,0.871,0.967
			l0.736,0.44c0.927,0.551,1.255,0.991,1.255,1.631C66.182,44.013,65.782,44.844,64.206,44.844z"/>
	</g>
	<g enable-background="new    ">
		<path fill="#FFFFFF" d="M33.323,52.888c-0.229,0-0.579-0.026-0.781-0.035v2.29c0,0.097-0.07,0.176-0.167,0.176h-0.877
			c-0.097,0-0.175-0.079-0.175-0.176v-6.036c0-0.176,0.105-0.237,0.281-0.263c0.456-0.07,1.079-0.114,1.72-0.114
			c1.351,0,2.527,0.474,2.527,2.026v0.079C35.85,52.388,34.674,52.888,33.323,52.888z M34.639,50.756
			c0-0.737-0.439-1.018-1.316-1.018c-0.185,0-0.623,0.018-0.781,0.035v2.088c0.141,0.009,0.632,0.026,0.781,0.026
			c0.947,0,1.316-0.351,1.316-1.053V50.756z"/>
		<path fill="#FFFFFF" d="M40.333,55.266c-0.263,0.062-1.025,0.123-1.491,0.123c-1.141,0-2.026-0.308-2.026-1.799v-4.615
			c0-0.097,0.079-0.175,0.175-0.175h0.869c0.097,0,0.175,0.078,0.175,0.175v4.615c0,0.579,0.176,0.755,0.686,0.755h1.613
			c0.098,0,0.176,0.079,0.176,0.175v0.562C40.509,55.204,40.466,55.239,40.333,55.266z"/>
		<path fill="#FFFFFF" d="M43.396,55.389c-1.412,0-2.412-0.614-2.412-2.483v-3.939c0-0.097,0.079-0.166,0.176-0.166h0.868
			c0.097,0,0.175,0.069,0.175,0.166v3.939c0,1.001,0.246,1.475,1.193,1.475c0.948,0,1.193-0.474,1.193-1.475v-3.939
			c0-0.097,0.08-0.166,0.176-0.166h0.869c0.096,0,0.176,0.069,0.176,0.166v3.939C45.81,54.774,44.809,55.389,43.396,55.389z"/>
		<path fill="#FFFFFF" d="M48.724,55.389c-0.658,0-1.133-0.062-1.554-0.158c-0.087-0.018-0.167-0.079-0.167-0.176v-0.631
			c0-0.097,0.08-0.167,0.167-0.167c0.009,0,0.009,0,0.018,0c0.351,0.044,1.229,0.088,1.554,0.088c0.78,0,1.018-0.281,1.018-0.79
			c0-0.342-0.167-0.518-0.746-0.859l-1.158-0.693c-0.816-0.482-1.035-0.991-1.035-1.605c0-0.966,0.562-1.667,2.193-1.667
			c0.579,0,1.387,0.088,1.685,0.157c0.087,0.018,0.157,0.079,0.157,0.167v0.649c0,0.088-0.061,0.158-0.148,0.158
			c-0.009,0-0.009,0-0.018,0c-0.579-0.053-1.158-0.088-1.729-0.088c-0.649,0-0.922,0.228-0.922,0.623c0,0.289,0.15,0.465,0.721,0.78
			l1.053,0.588c0.965,0.535,1.219,1.097,1.219,1.79C51.031,54.441,50.478,55.389,48.724,55.389z"/>
	</g>
	<g>
		<polygon fill="#E8522E" points="60.418,23.064 60.418,8.184 45.536,8.184 45.538,0.742 67.86,0.742 67.858,23.064 		"/>
	</g>
	<path fill="#292F41" d="M19.261,23.064l-0.331-0.332c-0.049-0.047-0.083-0.098-0.106-0.152c-0.023-0.055-0.034-0.115-0.034-0.178
		v-2.65c-0.262,0-0.483-0.094-0.67-0.279c-0.187-0.186-0.277-0.408-0.277-0.668v-0.473l-1.479-1.48
		c-0.275,0.332-0.492,0.703-0.648,1.113c-0.159,0.41-0.238,0.848-0.238,1.314c0,1.057,0.367,1.951,1.103,2.686
		C17.31,22.697,18.204,23.064,19.261,23.064z M19.733,23.041c0.939-0.117,1.728-0.531,2.361-1.242
		c0.636-0.711,0.952-1.551,0.952-2.52c0-1.051-0.368-1.943-1.105-2.682c-0.737-0.736-1.631-1.105-2.681-1.105
		c-0.347,0-0.68,0.045-1,0.135c-0.319,0.092-0.617,0.217-0.893,0.373v0.912h1.68c0.143,0,0.277,0.031,0.408,0.094
		c0.13,0.063,0.237,0.15,0.325,0.26l0.662,0.828h0.709c0.136,0,0.246,0.047,0.339,0.137c0.09,0.092,0.136,0.203,0.136,0.338v0.496
		c0,0.072-0.011,0.139-0.028,0.201c-0.021,0.064-0.051,0.127-0.09,0.189l-1.775,2.662V23.041z"/>
	<path fill="#292F41" d="M31.412,22.311c-0.205,0-0.383-0.072-0.528-0.219c-0.148-0.146-0.22-0.324-0.22-0.529v-5.246
		c0-0.207,0.07-0.383,0.22-0.529c0.146-0.146,0.323-0.221,0.528-0.221h0.376v-0.748h0.749v0.748h2.998v-0.748h0.75v0.748h0.374
		c0.206,0,0.382,0.074,0.528,0.221c0.146,0.146,0.221,0.322,0.221,0.529v5.246c0,0.205-0.073,0.383-0.221,0.529
		c-0.146,0.146-0.322,0.219-0.528,0.219H31.412z M31.412,21.563h5.247v-3.748h-5.247V21.563z M31.412,17.066h5.247v-0.75h-5.247
		V17.066z M31.412,17.066v-0.75V17.066z M34.036,19.314c-0.106,0-0.195-0.037-0.269-0.107c-0.072-0.072-0.106-0.162-0.106-0.268
		c0-0.107,0.034-0.195,0.106-0.268c0.072-0.073,0.161-0.107,0.269-0.107c0.104,0,0.194,0.035,0.267,0.107
		c0.072,0.072,0.108,0.16,0.108,0.268c0,0.105-0.037,0.195-0.108,0.268C34.231,19.277,34.142,19.314,34.036,19.314z M32.537,19.314
		c-0.106,0-0.196-0.037-0.268-0.107c-0.07-0.072-0.106-0.162-0.106-0.268c0-0.107,0.036-0.195,0.106-0.268
		c0.07-0.072,0.16-0.107,0.268-0.107c0.104,0,0.193,0.035,0.267,0.107c0.073,0.072,0.107,0.16,0.107,0.268
		c0,0.105-0.034,0.195-0.107,0.268C32.731,19.277,32.643,19.314,32.537,19.314z M35.535,19.314c-0.108,0-0.196-0.037-0.269-0.107
		c-0.072-0.072-0.106-0.162-0.106-0.268c0-0.107,0.034-0.195,0.106-0.268c0.071-0.072,0.159-0.107,0.269-0.107
		c0.104,0,0.194,0.035,0.267,0.107c0.072,0.072,0.108,0.16,0.108,0.268c0,0.105-0.036,0.195-0.108,0.268
		C35.73,19.277,35.641,19.314,35.535,19.314z M34.036,20.813c-0.106,0-0.195-0.037-0.269-0.107c-0.072-0.072-0.106-0.16-0.106-0.268
		c0-0.105,0.034-0.195,0.106-0.266c0.072-0.072,0.161-0.109,0.269-0.109c0.104,0,0.194,0.037,0.267,0.109
		c0.071,0.07,0.108,0.16,0.108,0.266c0,0.107-0.037,0.195-0.108,0.268C34.231,20.775,34.142,20.813,34.036,20.813z M32.537,20.813
		c-0.106,0-0.196-0.037-0.268-0.107c-0.07-0.072-0.106-0.16-0.106-0.268c0-0.105,0.036-0.195,0.106-0.266
		c0.07-0.072,0.16-0.109,0.268-0.109c0.104,0,0.193,0.037,0.267,0.109c0.073,0.07,0.107,0.16,0.107,0.266
		c0,0.107-0.034,0.195-0.107,0.268C32.731,20.775,32.643,20.813,32.537,20.813z M35.535,20.813c-0.108,0-0.196-0.037-0.269-0.107
		c-0.072-0.072-0.106-0.16-0.106-0.268c0-0.105,0.034-0.195,0.106-0.266c0.071-0.072,0.159-0.109,0.269-0.109
		c0.104,0,0.194,0.037,0.267,0.109c0.072,0.07,0.108,0.16,0.108,0.266c0,0.107-0.036,0.195-0.108,0.268
		C35.73,20.775,35.641,20.813,35.535,20.813z"/>
	<path fill="#292F41" d="M34.167,9.092c-1.016-0.863-1.772-1.666-2.274-2.406c-0.5-0.74-0.752-1.426-0.752-2.055
		c0-0.947,0.305-1.699,0.913-2.26c0.609-0.561,1.313-0.842,2.113-0.842h0.188c0.063,0,0.128,0.006,0.189,0.02v0.766
		c-0.063-0.014-0.123-0.021-0.185-0.023c-0.061-0.004-0.125-0.006-0.192-0.006c-0.639,0-1.175,0.219-1.613,0.656
		c-0.438,0.439-0.656,1.002-0.656,1.689c0,0.447,0.187,0.959,0.559,1.535s0.941,1.219,1.712,1.924
		c0.768-0.705,1.339-1.348,1.71-1.924c0.373-0.576,0.558-1.088,0.558-1.535V4.555h0.756v0.076c0,0.629-0.25,1.314-0.75,2.055
		C35.939,7.426,35.183,8.229,34.167,9.092z M34.167,5.311c0.207,0,0.386-0.074,0.532-0.223c0.148-0.148,0.224-0.326,0.224-0.533
		c0-0.209-0.074-0.387-0.224-0.535c-0.146-0.148-0.325-0.221-0.532-0.221c-0.209,0-0.388,0.072-0.535,0.221
		c-0.147,0.148-0.222,0.326-0.222,0.535c0,0.207,0.073,0.385,0.222,0.533C33.78,5.236,33.958,5.311,34.167,5.311z M36.435,3.799
		h0.756V2.664h1.135V1.908H37.19V0.773h-0.756v1.135h-1.133v0.756h1.133L36.435,3.799L36.435,3.799z"/>
	<path fill="#292F41" d="M16.005,38.151c-0.238,0-0.443-0.086-0.616-0.256c-0.171-0.172-0.255-0.377-0.255-0.617v-6.104
		c0-0.24,0.084-0.447,0.255-0.617c0.173-0.17,0.378-0.256,0.616-0.256h6.105c0.241,0,0.445,0.086,0.615,0.256
		c0.173,0.17,0.259,0.377,0.259,0.617v6.104c0,0.24-0.086,0.445-0.259,0.617c-0.17,0.17-0.374,0.256-0.615,0.256H16.005z
		 M16.005,37.278h6.105v-6.104h-6.105V37.278z M16.44,36.408h5.234l-1.635-2.182l-1.311,1.744l-0.979-1.309L16.44,36.408z
		 M16.005,37.278v-6.104V37.278z"/>
</g>
</svg>
