<?xml version="1.0" encoding="utf-8"?>
<!-- Generator: Adobe Illustrator 16.0.0, SVG Export Plug-In . SVG Version: 6.00 Build 0)  -->
<!DOCTYPE svg PUBLIC "-//W3C//DTD SVG 1.1//EN" "http://www.w3.org/Graphics/SVG/1.1/DTD/svg11.dtd">
<svg version="1.1" id="Capa_1" xmlns="http://www.w3.org/2000/svg" xmlns:xlink="http://www.w3.org/1999/xlink" x="0px" y="0px"
	 width="73.479px" height="73.166px" viewBox="0 0 73.479 73.166" enable-background="new 0 0 73.479 73.166" xml:space="preserve">
<g>
	<rect x="25.354" y="25.041" fill="#72B339" width="48.125" height="48.125"/>
	<g>
		<g>
			<path fill="#292F41" d="M0.001,66.647l0.001-22.217h7.403v14.812l14.812-0.001v7.406H0.001z M0,37.025l0.001-7.405l7.404,0.001
				l0.002,7.404H0z M0.002,22.216l-0.001-7.405h7.404v7.404L0.002,22.216z M0.002,7.406V0l7.403,0.001v7.404L0.002,7.406z
				 M14.813,7.405L19.523,0l-3.016,0.001l4.709,7.405L14.813,7.405z M29.622,7.405L29.621,0h7.405v7.405H29.622z"/>
		</g>
		<g enable-background="new    ">
			<path fill="#FFFFFF" d="M31.403,43.885c-0.49,0-0.854-0.049-1.163-0.098c-0.119-0.021-0.133-0.049-0.133-0.126v-0.28
				c0-0.077,0.056-0.112,0.119-0.112c0.007,0,0.014,0,0.021,0c0.322,0.028,0.833,0.042,1.156,0.042c0.84,0,1.064-0.336,1.064-0.826
				c0-0.351-0.203-0.547-0.84-0.938l-0.679-0.413c-0.645-0.393-0.967-0.75-0.967-1.31c0-0.848,0.609-1.24,1.674-1.24
				c0.414,0,0.953,0.042,1.219,0.084c0.07,0.015,0.119,0.049,0.119,0.119v0.301c0,0.07-0.049,0.112-0.119,0.112
				c-0.007,0-0.007,0-0.014,0c-0.308-0.021-0.798-0.042-1.205-0.042c-0.721,0-1.029,0.154-1.029,0.666
				c0,0.329,0.231,0.524,0.763,0.847l0.645,0.386c0.813,0.483,1.1,0.868,1.1,1.429C33.133,43.156,32.782,43.885,31.403,43.885z"/>
			<path fill="#FFFFFF" d="M35.799,43.885c-1.1,0-1.898-0.645-1.898-2.199v-0.903c0-1.555,0.798-2.199,1.898-2.199
				s1.892,0.645,1.892,2.199v0.903C37.691,43.24,36.899,43.885,35.799,43.885z M37.046,40.782c0-1.177-0.476-1.625-1.247-1.625
				c-0.764,0-1.254,0.448-1.254,1.625v0.903c0,1.177,0.483,1.625,1.254,1.625c0.763,0,1.247-0.448,1.247-1.625V40.782z"/>
			<path fill="#FFFFFF" d="M41.511,43.822c-0.182,0.027-0.707,0.063-1.365,0.063c-0.75,0-1.492-0.146-1.492-1.303v-3.81
				c0-0.077,0.063-0.141,0.141-0.141h0.357c0.076,0,0.14,0.063,0.14,0.141v3.81c0,0.532,0.119,0.729,0.861,0.729h1.353
				c0.049,0,0.076,0.035,0.076,0.084v0.329C41.581,43.766,41.554,43.814,41.511,43.822z"/>
			<path fill="#FFFFFF" d="M43.743,43.885c-1.135,0-1.793-0.603-1.793-1.939v-3.18c0-0.07,0.057-0.134,0.133-0.134h0.379
				c0.07,0,0.133,0.057,0.133,0.134v3.18c0,0.903,0.28,1.394,1.148,1.394c0.869,0,1.148-0.483,1.148-1.394v-3.18
				c0-0.07,0.057-0.134,0.134-0.134h0.378c0.07,0,0.133,0.057,0.133,0.134v3.18C45.536,43.282,44.878,43.885,43.743,43.885z"/>
			<path fill="#FFFFFF" d="M49.491,43.794c-0.295,0.056-0.567,0.091-1.163,0.091c-0.861,0-1.849-0.462-1.849-2.164v-0.974
				c0-1.716,0.987-2.164,1.849-2.164c0.441,0,0.868,0.063,1.177,0.112c0.063,0.007,0.112,0.028,0.112,0.091v0.357
				c0,0.042-0.015,0.077-0.085,0.077c-0.006,0-0.014,0-0.021,0c-0.252-0.021-0.771-0.063-1.177-0.063
				c-0.686,0-1.219,0.399-1.219,1.59v0.974c0,1.177,0.533,1.59,1.219,1.59c0.399,0,0.904-0.035,1.156-0.056c0.007,0,0.021,0,0.027,0
				c0.078,0,0.112,0.035,0.112,0.111v0.288C49.631,43.738,49.568,43.78,49.491,43.794z"/>
			<path fill="#FFFFFF" d="M51.001,43.836h-0.385c-0.07,0-0.126-0.063-0.126-0.14v-4.931c0-0.07,0.05-0.134,0.126-0.134h0.385
				c0.07,0,0.127,0.057,0.127,0.134v4.931C51.128,43.766,51.079,43.836,51.001,43.836z"/>
			<path fill="#FFFFFF" d="M54.062,43.885c-1.1,0-1.898-0.645-1.898-2.199v-0.903c0-1.555,0.799-2.199,1.898-2.199
				s1.891,0.645,1.891,2.199v0.903C55.952,43.24,55.161,43.885,54.062,43.885z M55.308,40.782c0-1.177-0.476-1.625-1.246-1.625
				c-0.764,0-1.254,0.448-1.254,1.625v0.903c0,1.177,0.483,1.625,1.254,1.625c0.764,0,1.246-0.448,1.246-1.625V40.782z"/>
			<path fill="#FFFFFF" d="M60.384,43.836h-0.435c-0.112,0-0.189-0.042-0.224-0.112l-2.165-4.111
				c-0.007-0.014-0.014-0.021-0.021-0.021c-0.008,0-0.008,0.007-0.008,0.021v4.091c0,0.069-0.056,0.133-0.125,0.133h-0.365
				c-0.069,0-0.125-0.014-0.125-0.084v-4.924c0-0.112,0.09-0.196,0.203-0.196h0.385c0.195,0,0.23,0.035,0.287,0.141l2.15,4.09
				l0.014,0.021c0.007,0,0.007-0.015,0.007-0.021v-4.097c0-0.07,0.056-0.134,0.126-0.134h0.371c0.078,0,0.127,0.063,0.127,0.134
				v4.867C60.587,43.745,60.495,43.836,60.384,43.836z"/>
			<path fill="#FFFFFF" d="M64.534,43.85c-0.267,0.028-0.953,0.035-1.366,0.035c-0.98,0-1.491-0.371-1.491-1.303v-2.696
				c0-0.932,0.511-1.303,1.491-1.303c0.413,0,1.071,0.014,1.366,0.042c0.041,0.007,0.07,0.057,0.07,0.099v0.35
				c0,0.049-0.029,0.084-0.078,0.084h-1.352c-0.742,0-0.861,0.196-0.861,0.729v0.974h2.15c0.076,0,0.141,0.063,0.141,0.14v0.267
				c0,0.077-0.064,0.14-0.141,0.14h-2.15v1.177c0,0.532,0.119,0.729,0.861,0.729h1.352c0.049,0,0.078,0.035,0.078,0.084v0.357
				C64.605,43.794,64.575,43.843,64.534,43.85z"/>
			<path fill="#FFFFFF" d="M66.759,43.885c-0.49,0-0.854-0.049-1.162-0.098c-0.119-0.021-0.134-0.049-0.134-0.126v-0.28
				c0-0.077,0.056-0.112,0.119-0.112c0.007,0,0.015,0,0.021,0c0.322,0.028,0.834,0.042,1.156,0.042c0.84,0,1.064-0.336,1.064-0.826
				c0-0.351-0.203-0.547-0.84-0.938l-0.68-0.413c-0.645-0.393-0.967-0.75-0.967-1.31c0-0.848,0.609-1.24,1.674-1.24
				c0.414,0,0.953,0.042,1.219,0.084c0.07,0.015,0.119,0.049,0.119,0.119v0.301c0,0.07-0.049,0.112-0.119,0.112
				c-0.007,0-0.007,0-0.014,0c-0.309-0.021-0.799-0.042-1.205-0.042c-0.721,0-1.029,0.154-1.029,0.666
				c0,0.329,0.23,0.524,0.764,0.847l0.645,0.386c0.813,0.483,1.1,0.868,1.1,1.429C68.49,43.156,68.139,43.885,66.759,43.885z"/>
		</g>
		<g enable-background="new    ">
			<path fill="#FFFFFF" d="M32.232,54.386c-0.62,0-1.458-0.062-1.72-0.105c-0.148-0.026-0.227-0.096-0.227-0.271v-5.874
				c0-0.174,0.079-0.244,0.227-0.271c0.262-0.044,1.1-0.104,1.72-0.104c1.746,0,2.741,0.942,2.741,2.671v1.283
				C34.972,53.442,33.977,54.386,32.232,54.386z M33.768,50.432c0-1.31-0.664-1.649-1.536-1.649c-0.323,0-0.55,0.018-0.733,0.025
				v4.53c0.184,0.009,0.41,0.026,0.733,0.026c0.873,0,1.536-0.341,1.536-1.649V50.432z"/>
			<path fill="#FFFFFF" d="M39.924,48.843h-1.527v5.298c0,0.097-0.079,0.175-0.175,0.175h-0.863c-0.097,0-0.175-0.078-0.175-0.175
				v-5.298h-1.527c-0.096,0-0.174-0.061-0.174-0.157v-0.689c0-0.096,0.079-0.166,0.174-0.166h4.268c0.097,0,0.175,0.07,0.175,0.166
				v0.689C40.099,48.782,40.021,48.843,39.924,48.843z"/>
			<path fill="#FFFFFF" d="M42.013,54.315H41.15c-0.096,0-0.175-0.078-0.175-0.175v-6.145c0-0.096,0.079-0.166,0.175-0.166h0.863
				c0.096,0,0.175,0.07,0.175,0.166v6.145C42.188,54.237,42.109,54.315,42.013,54.315z"/>
		</g>
		<g>
			<polygon fill="#72B339" points="59.245,22.215 59.245,7.406 44.432,7.404 44.432,0 66.649,0 66.649,22.215 			"/>
		</g>
		<path fill="#292F41" d="M22.218,18.512c0,2.045-1.657,3.702-3.703,3.702l0,0c-2.044,0-3.702-1.657-3.702-3.702l0,0
			c0-2.045,1.658-3.702,3.702-3.702l0,0C20.561,14.81,22.218,16.467,22.218,18.512L22.218,18.512z"/>
		<text transform="matrix(1 0 0 1 13.9773 35.7441)" fill="#292F41" font-family="'MyriadPro-Regular'" font-size="11.5052">+</text>
		<rect x="32.16" y="15" fill="#292F41" width="2.434" height="7.405"/>
	</g>
</g>
</svg>
