<?xml version="1.0" encoding="utf-8"?>
<!-- Generator: Adobe Illustrator 16.0.0, SVG Export Plug-In . SVG Version: 6.00 Build 0)  -->
<!DOCTYPE svg PUBLIC "-//W3C//DTD SVG 1.1//EN" "http://www.w3.org/Graphics/SVG/1.1/DTD/svg11.dtd">
<svg version="1.1" id="Capa_1" xmlns="http://www.w3.org/2000/svg" xmlns:xlink="http://www.w3.org/1999/xlink" x="0px" y="0px"
	 width="73.479px" height="73.166px" viewBox="0 0 73.479 73.166" enable-background="new 0 0 73.479 73.166" xml:space="preserve">
<g>
	<rect x="26.32" y="25.344" fill="#75C8D9" width="48.78" height="48.781"/>
	<g>
		<path fill="#292F41" d="M0.621,67.517l0.002-22.519h7.505V60.01H23.14v7.507H0.621z M0.621,37.49v-7.506h7.507v7.508L0.621,37.49z
			 M0.623,22.479l-0.002-7.507h7.507v7.506L0.623,22.479z M0.623,7.467v-7.506h7.505v7.506H0.623z"/>
	</g>
	<g>
		<path fill="#FFFFFF" d="M32.893,44.455c-0.62,0-1.08-0.062-1.47-0.123c-0.15-0.027-0.168-0.063-0.168-0.16v-0.354
			c0-0.098,0.071-0.142,0.15-0.142c0.009,0,0.018,0,0.027,0c0.406,0.035,1.053,0.054,1.46,0.054c1.062,0,1.345-0.426,1.345-1.045
			c0-0.442-0.256-0.69-1.062-1.186l-0.858-0.522c-0.814-0.495-1.222-0.947-1.222-1.655c0-1.071,0.771-1.566,2.115-1.566
			c0.522,0,1.204,0.053,1.54,0.106c0.089,0.018,0.15,0.062,0.15,0.15v0.38c0,0.088-0.062,0.142-0.15,0.142c-0.009,0-0.009,0-0.018,0
			c-0.39-0.026-1.009-0.053-1.522-0.053c-0.911,0-1.301,0.194-1.301,0.841c0,0.416,0.292,0.664,0.965,1.071l0.813,0.486
			c1.027,0.61,1.39,1.098,1.39,1.806C35.079,43.535,34.636,44.455,32.893,44.455z"/>
		<path fill="#FFFFFF" d="M40.267,38.508h-1.727v5.708c0,0.088-0.062,0.177-0.159,0.177h-0.486c-0.089,0-0.159-0.079-0.159-0.177
			v-5.708h-1.727c-0.097,0-0.177-0.044-0.177-0.142v-0.39c0-0.088,0.08-0.159,0.177-0.159h4.258c0.097,0,0.168,0.062,0.168,0.159
			v0.39C40.435,38.455,40.364,38.508,40.267,38.508z"/>
		<path fill="#FFFFFF" d="M43.277,44.455c-1.39,0-2.398-0.814-2.398-2.778v-1.142c0-1.965,1.009-2.779,2.398-2.779
			c1.389,0,2.39,0.814,2.39,2.779v1.142C45.667,43.641,44.666,44.455,43.277,44.455z M44.852,40.535
			c0-1.487-0.602-2.054-1.575-2.054c-0.965,0-1.584,0.566-1.584,2.054v1.142c0,1.487,0.61,2.054,1.584,2.054
			c0.965,0,1.575-0.566,1.575-2.054V40.535z"/>
		<path fill="#FFFFFF" d="M51.27,44.394h-0.566c-0.106,0-0.159,0-0.23-0.115l-1.584-2.638c-0.026,0-0.053,0-0.08,0
			c-0.053,0-0.097,0-0.15,0c-0.292,0-0.504-0.008-0.974-0.025v2.602c0,0.088-0.062,0.177-0.159,0.177h-0.478
			c-0.089,0-0.159-0.079-0.159-0.177v-6.195c0-0.124,0.053-0.177,0.212-0.195c0.381-0.044,1.045-0.071,1.558-0.071
			c1.398,0,2.479,0.469,2.479,1.902v0.063c0,0.991-0.584,1.575-1.39,1.787l1.61,2.691c0.019,0.026,0.027,0.053,0.027,0.079
			C51.385,44.34,51.34,44.394,51.27,44.394z M50.34,39.658c0-0.885-0.575-1.177-1.682-1.177c-0.274,0-0.761,0-0.974,0.027v2.425
			c0.39,0.008,0.771,0.018,0.974,0.018c1.089,0,1.682-0.274,1.682-1.23V39.658z"/>
		<path fill="#FFFFFF" d="M56.192,38.039l-1.372,3.08c-0.159,0.354-0.318,0.514-0.478,0.584v2.514c0,0.088-0.07,0.177-0.159,0.177
			h-0.486c-0.089,0-0.16-0.089-0.16-0.177v-2.514c-0.159-0.063-0.318-0.23-0.478-0.584l-1.363-3.08
			c-0.018-0.035-0.026-0.071-0.026-0.097c0-0.071,0.063-0.124,0.15-0.124h0.54c0.062,0,0.133,0.062,0.159,0.124l1.222,2.867
			c0.088,0.204,0.15,0.23,0.203,0.23c0.063,0,0.115-0.026,0.204-0.23l1.229-2.867c0.027-0.062,0.08-0.124,0.15-0.124h0.54
			c0.089,0,0.15,0.053,0.15,0.124C56.218,37.968,56.209,38.004,56.192,38.039z"/>
		<path fill="#FFFFFF" d="M35.398,49.131h-1.727v5.709c0,0.088-0.062,0.177-0.159,0.177h-0.486c-0.089,0-0.159-0.079-0.159-0.177
			v-5.709H31.14c-0.097,0-0.177-0.044-0.177-0.141V48.6c0-0.088,0.08-0.158,0.177-0.158h4.258c0.097,0,0.168,0.062,0.168,0.158
			v0.391C35.566,49.078,35.495,49.131,35.398,49.131z"/>
		<path fill="#FFFFFF" d="M39.939,55.034c-0.336,0.036-1.203,0.044-1.726,0.044c-1.239,0-1.885-0.469-1.885-1.646v-3.407
			c0-1.178,0.646-1.646,1.885-1.646c0.522,0,1.354,0.018,1.726,0.053c0.054,0.01,0.089,0.071,0.089,0.125v0.441
			c0,0.063-0.035,0.106-0.098,0.106h-1.708c-0.938,0-1.088,0.248-1.088,0.921v1.23h2.717c0.097,0,0.177,0.079,0.177,0.176v0.337
			c0,0.098-0.08,0.177-0.177,0.177h-2.717v1.487c0,0.673,0.15,0.921,1.088,0.921h1.708c0.063,0,0.098,0.043,0.098,0.105v0.451
			C40.028,54.963,39.993,55.025,39.939,55.034z"/>
		<path fill="#FFFFFF" d="M44.816,54.999c-0.229,0.035-0.894,0.079-1.726,0.079c-0.946,0-1.885-0.186-1.885-1.646v-4.814
			c0-0.098,0.079-0.177,0.177-0.177h0.451c0.098,0,0.178,0.079,0.178,0.177v4.814c0,0.673,0.15,0.921,1.088,0.921h1.708
			c0.063,0,0.098,0.043,0.098,0.105v0.416C44.905,54.928,44.87,54.99,44.816,54.999z"/>
		<path fill="#FFFFFF" d="M49.367,54.999c-0.229,0.035-0.894,0.079-1.726,0.079c-0.946,0-1.885-0.186-1.885-1.646v-4.814
			c0-0.098,0.079-0.177,0.177-0.177h0.451c0.098,0,0.178,0.079,0.178,0.177v4.814c0,0.673,0.15,0.921,1.088,0.921h1.708
			c0.063,0,0.098,0.043,0.098,0.105v0.416C49.456,54.928,49.42,54.99,49.367,54.999z"/>
		<path fill="#FFFFFF" d="M51.041,55.017h-0.486c-0.089,0-0.16-0.079-0.16-0.177v-6.23c0-0.089,0.063-0.168,0.16-0.168h0.486
			c0.089,0,0.159,0.07,0.159,0.168v6.23C51.2,54.928,51.138,55.017,51.041,55.017z"/>
		<path fill="#FFFFFF" d="M57.05,55.017h-0.549c-0.142,0-0.239-0.054-0.283-0.142l-2.734-5.195
			c-0.009-0.018-0.018-0.026-0.027-0.026c-0.009,0-0.009,0.009-0.009,0.026v5.169c0,0.089-0.07,0.168-0.159,0.168h-0.46
			c-0.089,0-0.159-0.018-0.159-0.106v-6.221c0-0.143,0.115-0.248,0.257-0.248h0.486c0.248,0,0.292,0.044,0.363,0.177l2.717,5.169
			l0.018,0.025c0.009,0,0.009-0.018,0.009-0.025v-5.178c0-0.089,0.071-0.168,0.159-0.168h0.47c0.097,0,0.159,0.079,0.159,0.168v6.15
			C57.307,54.901,57.192,55.017,57.05,55.017z"/>
		<path fill="#FFFFFF" d="M62.565,54.945c-0.434,0.071-0.929,0.133-1.761,0.133c-1.106,0-2.292-0.725-2.292-2.752v-1.186
			c0-2.15,1.238-2.762,2.371-2.762c0.823,0,1.346,0.07,1.682,0.124c0.08,0.009,0.15,0.044,0.15,0.133v0.442
			c0,0.063-0.035,0.088-0.114,0.088c-0.01,0-0.027,0-0.036,0c-0.521-0.043-0.929-0.062-1.682-0.062
			c-0.822,0-1.566,0.442-1.566,2.036v1.186c0,1.461,0.664,2.035,1.487,2.035c0.54,0,0.902-0.035,1.115-0.053v-2.531
			c0-0.098,0.062-0.177,0.159-0.177h0.478c0.089,0,0.168,0.079,0.168,0.177v2.974C62.724,54.849,62.663,54.928,62.565,54.945z"/>
		<path fill="#FFFFFF" d="M33.416,65.719c-0.735,0-1.522-0.07-1.886-0.133c-0.168-0.025-0.257-0.105-0.257-0.309v-5.851
			c0-0.204,0.089-0.283,0.257-0.31c0.363-0.063,1.15-0.133,1.886-0.133c1.761,0,2.822,0.93,2.822,2.797v1.142
			C36.238,64.79,35.176,65.719,33.416,65.719z M34.725,61.781c0-1.195-0.514-1.514-1.31-1.514c-0.222,0-0.505,0.009-0.629,0.018
			v4.133c0.124,0.01,0.407,0.018,0.629,0.018c0.796,0,1.31-0.318,1.31-1.513V61.781z"/>
		<path fill="#FFFFFF" d="M41.346,60.313h-1.434v5.15c0,0.098-0.08,0.177-0.178,0.177h-1.159c-0.097,0-0.177-0.079-0.177-0.177
			v-5.15h-1.442c-0.098,0-0.177-0.071-0.177-0.169v-0.911c0-0.098,0.079-0.168,0.177-0.168h4.39c0.097,0,0.186,0.07,0.186,0.168
			v0.911C41.532,60.241,41.443,60.313,41.346,60.313z"/>
		<path fill="#FFFFFF" d="M43.719,65.64h-1.187c-0.097,0-0.159-0.079-0.159-0.177v-6.23c0-0.098,0.063-0.168,0.159-0.168h1.187
			c0.098,0,0.168,0.07,0.168,0.168v6.23C43.887,65.561,43.817,65.64,43.719,65.64z"/>
	</g>
	<g>
		<polygon fill="#75C8D9" points="60.671,22.479 60.671,7.467 45.658,7.467 45.659,-0.039 68.178,-0.039 68.177,22.479 		"/>
	</g>
	<path fill="#292F41" d="M34.376,4.52c-0.315,0-0.584-0.11-0.805-0.332c-0.221-0.221-0.33-0.488-0.33-0.805V1.111
		c0-0.314,0.109-0.583,0.33-0.805c0.221-0.221,0.489-0.33,0.805-0.33c0.316,0,0.583,0.109,0.806,0.33
		c0.221,0.222,0.33,0.49,0.33,0.805v2.271c0,0.316-0.109,0.584-0.33,0.805C34.959,4.409,34.693,4.52,34.376,4.52z M33.999,7.17
		V6.006c-0.656-0.088-1.199-0.383-1.629-0.881c-0.429-0.498-0.644-1.078-0.644-1.742h0.758c0,0.524,0.184,0.971,0.553,1.34
		c0.37,0.369,0.816,0.555,1.34,0.555c0.524,0,0.971-0.186,1.339-0.555c0.37-0.369,0.554-0.815,0.554-1.34h0.758
		c0,0.664-0.215,1.244-0.644,1.742s-0.972,0.793-1.628,0.881V7.17H33.999z M34.376,3.762c0.107,0,0.198-0.035,0.27-0.107
		c0.074-0.074,0.109-0.163,0.109-0.271V1.111c0-0.106-0.035-0.197-0.109-0.27c-0.071-0.072-0.162-0.109-0.27-0.109
		c-0.106,0-0.197,0.037-0.269,0.109c-0.073,0.072-0.109,0.163-0.109,0.27v2.271c0,0.108,0.036,0.197,0.109,0.271
		C34.179,3.727,34.27,3.762,34.376,3.762z"/>
	<path fill="#292F41" d="M18.599,20.641l2.658-1.708l-2.658-1.708V20.641z M19.549,22.729c-0.524,0-1.019-0.1-1.481-0.298
		c-0.461-0.201-0.863-0.471-1.205-0.813s-0.613-0.743-0.812-1.205c-0.2-0.462-0.3-0.956-0.3-1.481c0-0.524,0.1-1.019,0.3-1.481
		c0.198-0.461,0.47-0.863,0.812-1.204c0.342-0.342,0.744-0.612,1.205-0.812c0.463-0.199,0.957-0.299,1.481-0.299
		s1.019,0.1,1.48,0.299s0.864,0.47,1.206,0.812c0.341,0.341,0.611,0.743,0.812,1.204c0.198,0.463,0.298,0.957,0.298,1.481
		c0,0.525-0.1,1.02-0.298,1.481c-0.2,0.462-0.471,0.863-0.812,1.205c-0.342,0.342-0.744,0.611-1.206,0.813
		C20.568,22.63,20.074,22.729,19.549,22.729z M19.549,21.97c0.847,0,1.565-0.294,2.153-0.882c0.589-0.588,0.883-1.307,0.883-2.155
		c0-0.848-0.294-1.565-0.883-2.154c-0.588-0.589-1.307-0.884-2.153-0.884c-0.849,0-1.566,0.295-2.155,0.884
		s-0.883,1.307-0.883,2.154c0,0.849,0.294,1.567,0.883,2.155S18.701,21.97,19.549,21.97z"/>
	<path fill="#292F41" d="M19.674,3.868c0.196,0,0.366-0.07,0.506-0.211c0.141-0.141,0.211-0.31,0.211-0.507s-0.07-0.365-0.211-0.506
		c-0.14-0.141-0.31-0.211-0.506-0.211c-0.198,0-0.366,0.07-0.507,0.211c-0.14,0.141-0.211,0.309-0.211,0.506
		s0.071,0.366,0.211,0.507C19.308,3.798,19.476,3.868,19.674,3.868z M19.674,6.502c0.728-0.669,1.269-1.277,1.621-1.823
		s0.529-1.032,0.529-1.456c0-0.652-0.208-1.185-0.623-1.6C20.787,1.207,20.277,1,19.674,1c-0.604,0-1.113,0.207-1.528,0.623
		c-0.416,0.415-0.622,0.947-0.622,1.6c0,0.424,0.175,0.91,0.528,1.456C18.405,5.225,18.945,5.833,19.674,6.502z M19.674,7.452
		c-0.962-0.817-1.681-1.579-2.156-2.281c-0.475-0.702-0.712-1.351-0.712-1.948c0-0.896,0.289-1.61,0.865-2.143
		c0.576-0.531,1.244-0.796,2.003-0.796S21.1,0.549,21.677,1.08c0.576,0.532,0.864,1.246,0.864,2.143
		c0,0.598-0.238,1.246-0.712,1.948C21.353,5.873,20.635,6.635,19.674,7.452z"/>
	<path fill="#292F41" d="M34.447,20.607c0.488,0,0.904-0.17,1.246-0.513s0.513-0.758,0.513-1.247c0-0.488-0.171-0.904-0.513-1.246
		s-0.758-0.514-1.246-0.514c-0.489,0-0.905,0.172-1.248,0.514c-0.342,0.342-0.512,0.758-0.512,1.246c0,0.489,0.17,0.904,0.512,1.247
		C33.542,20.438,33.958,20.607,34.447,20.607z M34.447,19.825c-0.274,0-0.506-0.095-0.695-0.282
		c-0.188-0.189-0.283-0.422-0.283-0.695s0.095-0.504,0.283-0.693c0.189-0.189,0.421-0.283,0.695-0.283
		c0.273,0,0.504,0.094,0.693,0.283s0.284,0.42,0.284,0.693s-0.095,0.506-0.284,0.695C34.951,19.73,34.72,19.825,34.447,19.825z
		 M31.318,21.977c-0.216,0-0.398-0.076-0.553-0.23c-0.152-0.152-0.23-0.336-0.23-0.552v-4.692c0-0.215,0.078-0.399,0.23-0.553
		c0.154-0.154,0.337-0.23,0.553-0.23h1.231l0.724-0.781h2.347l0.724,0.781h1.231c0.216,0,0.398,0.076,0.553,0.23
		c0.152,0.153,0.229,0.338,0.229,0.553v4.692c0,0.216-0.077,0.399-0.229,0.552c-0.154,0.154-0.337,0.23-0.553,0.23H31.318z
		 M31.318,21.194h6.257v-4.692H35.99l-0.713-0.783h-1.662l-0.713,0.783h-1.584V21.194z"/>
	<path fill="#292F41" d="M19.638,32.574l0.328,0.329l1.929-1.929l-0.328-0.329L19.638,32.574z M17.059,35.48h0.329l2.071-2.07
		l-0.328-0.33l-2.072,2.071V35.48z M20.215,33.658l-1.334-1.333l1.485-1.484l-0.257-0.257l-1.947,1.945l-0.498-0.498l1.937-1.945
		c0.144-0.143,0.311-0.215,0.504-0.215c0.192,0,0.359,0.072,0.502,0.215l0.258,0.258l0.443-0.445
		c0.072-0.07,0.157-0.106,0.254-0.106c0.099,0,0.182,0.036,0.254,0.106l0.826,0.826c0.071,0.072,0.107,0.156,0.107,0.254
		s-0.036,0.182-0.107,0.254L20.215,33.658z M17.682,36.191h-1.333v-1.333l2.532-2.533l1.334,1.333L17.682,36.191z"/>
</g>
</svg>
