<?xml version="1.0" encoding="utf-8"?>
<!-- Generator: Adobe Illustrator 16.0.0, SVG Export Plug-In . SVG Version: 6.00 Build 0)  -->
<!DOCTYPE svg PUBLIC "-//W3C//DTD SVG 1.1//EN" "http://www.w3.org/Graphics/SVG/1.1/DTD/svg11.dtd">
<svg version="1.1" id="Capa_1" xmlns="http://www.w3.org/2000/svg" xmlns:xlink="http://www.w3.org/1999/xlink" x="0px" y="0px"
	 width="73.479px" height="73.166px" viewBox="0 0 73.479 73.166" enable-background="new 0 0 73.479 73.166" xml:space="preserve">
<g>
	<rect x="26.646" y="25.674" fill="#ED96A3" width="47.403" height="47.404"/>
	<g enable-background="new    ">
		<path fill="#FFFFFF" d="M35.471,38.465h-1.678v5.551c0,0.086-0.06,0.172-0.155,0.172h-0.473c-0.086,0-0.155-0.077-0.155-0.172
			v-5.551h-1.678c-0.094,0-0.172-0.043-0.172-0.138v-0.379c0-0.086,0.078-0.155,0.172-0.155h4.14c0.095,0,0.164,0.061,0.164,0.155
			v0.379C35.635,38.413,35.566,38.465,35.471,38.465z"/>
		<path fill="#FFFFFF" d="M38.782,44.248c-1.394,0-2.203-0.74-2.203-2.384v-3.907c0-0.086,0.069-0.164,0.164-0.164h0.465
			c0.086,0,0.163,0.069,0.163,0.164v3.907c0,1.109,0.345,1.712,1.411,1.712c1.067,0,1.412-0.594,1.412-1.712v-3.907
			c0-0.086,0.068-0.164,0.163-0.164h0.465c0.086,0,0.163,0.069,0.163,0.164v3.907C40.986,43.508,40.177,44.248,38.782,44.248z"/>
		<path fill="#FFFFFF" d="M46.56,44.188h-0.551c-0.103,0-0.154,0-0.223-0.112l-1.541-2.564c-0.025,0-0.052,0-0.078,0
			c-0.051,0-0.094,0-0.146,0c-0.284,0-0.491-0.009-0.946-0.025v2.53c0,0.086-0.061,0.172-0.155,0.172h-0.465
			c-0.086,0-0.155-0.077-0.155-0.172v-6.024c0-0.12,0.052-0.172,0.207-0.189c0.37-0.043,1.016-0.068,1.515-0.068
			c1.359,0,2.409,0.456,2.409,1.85v0.061c0,0.964-0.567,1.532-1.351,1.738l1.565,2.616c0.018,0.026,0.026,0.052,0.026,0.077
			C46.672,44.136,46.629,44.188,46.56,44.188z M45.656,39.583c0-0.86-0.56-1.145-1.635-1.145c-0.267,0-0.74,0-0.946,0.026v2.357
			c0.378,0.009,0.748,0.018,0.946,0.018c1.059,0,1.635-0.267,1.635-1.196V39.583z"/>
		<path fill="#FFFFFF" d="M49.364,44.248c-0.567,0-1.075-0.026-1.403-0.078c-0.197-0.025-0.283-0.103-0.283-0.318V38.12
			c0-0.198,0.095-0.301,0.275-0.318c0.283-0.034,0.809-0.068,1.368-0.068c1.368,0,2.521,0.361,2.521,1.66v0.138
			c0,0.638-0.335,1.128-0.921,1.352c0.594,0.207,0.955,0.731,0.955,1.395v0.146C51.876,43.869,50.706,44.248,49.364,44.248z
			 M51.059,39.394c0-0.826-0.688-0.998-1.738-0.998c-0.292,0-0.61,0.018-0.853,0.026v2.134h1.326c0.998,0,1.265-0.481,1.265-1.024
			V39.394z M51.093,42.277c0-0.568-0.283-1.094-1.299-1.094h-1.326v2.367c0.285,0.009,0.594,0.034,0.896,0.034
			c1.067,0,1.729-0.232,1.729-1.162V42.277z"/>
		<path fill="#FFFFFF" d="M55.154,44.248c-1.352,0-2.332-0.792-2.332-2.702v-1.11c0-1.911,0.98-2.702,2.332-2.702
			s2.324,0.791,2.324,2.702v1.11C57.478,43.456,56.505,44.248,55.154,44.248z M56.685,40.436c0-1.446-0.584-1.997-1.531-1.997
			c-0.938,0-1.541,0.551-1.541,1.997v1.11c0,1.445,0.594,1.996,1.541,1.996c0.938,0,1.531-0.551,1.531-1.996V40.436z"/>
		<path fill="#FFFFFF" d="M62.673,44.188H62.13c-0.086,0-0.12-0.034-0.18-0.129l-1.575-2.505l-1.54,2.505
			c-0.061,0.095-0.112,0.129-0.182,0.129h-0.508c-0.094,0-0.137-0.061-0.137-0.129c0-0.026,0.008-0.061,0.025-0.086l1.91-3.038
			L58.052,38c-0.018-0.026-0.026-0.061-0.026-0.086c0-0.069,0.043-0.121,0.129-0.121h0.56c0.086,0,0.121,0.026,0.154,0.086
			l1.55,2.453l1.497-2.453c0.052-0.077,0.095-0.086,0.164-0.086h0.508c0.086,0,0.137,0.061,0.137,0.129
			c0,0.026-0.008,0.052-0.025,0.078l-1.85,2.951l1.936,3.021c0.018,0.025,0.026,0.06,0.026,0.095
			C62.811,44.127,62.767,44.188,62.673,44.188z"/>
	</g>
	<g enable-background="new    ">
		<path fill="#FFFFFF" d="M35.514,54.433c-0.43,0.086-0.99,0.146-1.876,0.146c-0.93,0-2.307-0.61-2.307-2.642v-1.239
			c0-2.039,1.308-2.65,2.333-2.65c0.826,0,1.566,0.104,1.85,0.154c0.112,0.026,0.164,0.069,0.164,0.182v0.576
			c0,0.12-0.034,0.181-0.172,0.181c-0.009,0-0.018,0-0.026,0c-0.396-0.034-0.99-0.069-1.816-0.069c-0.577,0-1.127,0.405-1.127,1.627
			v1.239c0,1.222,0.594,1.618,1.102,1.618c0.318,0,0.585-0.009,0.852-0.026v-2.194c0-0.095,0.069-0.172,0.164-0.172h0.852
			c0.094,0,0.172,0.077,0.172,0.172v2.892C35.678,54.338,35.626,54.406,35.514,54.433z"/>
		<path fill="#FFFFFF" d="M39.247,54.578c-1.42,0-2.453-0.791-2.453-2.685v-1.162c0-1.893,1.033-2.685,2.453-2.685
			s2.453,0.792,2.453,2.685v1.162C41.7,53.787,40.667,54.578,39.247,54.578z M40.495,50.731c0-1.136-0.404-1.644-1.248-1.644
			s-1.248,0.508-1.248,1.644v1.162c0,1.136,0.404,1.644,1.248,1.644s1.248-0.508,1.248-1.644V50.731z"/>
	</g>
	<g>
		<polygon fill="#ED96A3" points="60.028,22.891 60.028,8.303 45.438,8.301 45.439,1.008 67.323,1.008 67.322,22.891 		"/>
	</g>
	<g>
		<path fill="#292F41" d="M1.672,66.657l0.001-21.885h7.293v14.59h14.589v7.295H1.672z M1.671,37.479l0.001-7.294l7.294,0.001
			l0.002,7.293H1.671z M1.673,22.891l-0.001-7.295l7.294,0.001v7.294H1.673z M1.673,8.303V1.008l7.293,0.001v7.294H1.673z
			 M16.262,8.303V1.008l7.294,0.001l-0.001,7.294H16.262z M30.85,8.303l-0.001-7.295h7.295v7.295H30.85z"/>
	</g>
	<path fill="#292F41" d="M18.915,36.619v-2.66l-2.33-1.349v2.659L18.915,36.619z M19.691,36.619l2.33-1.35V32.61l-2.33,1.349V36.619
		z M18.915,37.513l-2.719-1.563c-0.122-0.071-0.219-0.165-0.285-0.281c-0.068-0.116-0.104-0.246-0.104-0.389v-3.086
		c0-0.143,0.034-0.272,0.104-0.389c0.066-0.116,0.163-0.211,0.285-0.281l2.719-1.563c0.122-0.07,0.252-0.106,0.388-0.106
		c0.137,0,0.266,0.036,0.389,0.106l2.719,1.563c0.122,0.07,0.218,0.165,0.285,0.281c0.068,0.116,0.103,0.246,0.103,0.389v3.086
		c0,0.143-0.033,0.272-0.103,0.389c-0.068,0.117-0.163,0.21-0.285,0.281l-2.719,1.563c-0.123,0.07-0.252,0.106-0.389,0.106
		C19.167,37.619,19.037,37.583,18.915,37.513z M20.856,32.387l0.747-0.427l-2.301-1.33l-0.756,0.437L20.856,32.387z M19.302,33.289
		l0.758-0.436l-2.301-1.33l-0.757,0.437L19.302,33.289z"/>
	<path fill="#292F41" d="M31.457,21.621c-0.187,0-0.344-0.065-0.475-0.196c-0.131-0.132-0.195-0.288-0.195-0.472v-0.67
		c0-0.184,0.064-0.341,0.195-0.473c0.131-0.131,0.288-0.195,0.475-0.195h2.005c0.185,0,0.342,0.064,0.474,0.195
		c0.131,0.132,0.195,0.289,0.195,0.473v0.67c0,0.184-0.064,0.34-0.195,0.472c-0.132,0.131-0.289,0.196-0.474,0.196H31.457z
		 M35.468,21.621c-0.184,0-0.341-0.065-0.473-0.196c-0.132-0.132-0.196-0.288-0.196-0.472V16.27c0-0.184,0.064-0.341,0.196-0.472
		c0.132-0.132,0.289-0.196,0.473-0.196h2.007c0.186,0,0.342,0.064,0.475,0.196c0.131,0.131,0.194,0.288,0.194,0.472v4.684
		c0,0.184-0.063,0.34-0.194,0.472c-0.133,0.131-0.289,0.196-0.475,0.196L35.468,21.621L35.468,21.621z M31.457,20.953h2.005v-0.67
		h-2.005V20.953z M35.468,20.953h2.007V16.27h-2.007V20.953z M36.471,20.618c0.096,0,0.175-0.032,0.239-0.096
		c0.063-0.064,0.096-0.145,0.096-0.239c0-0.094-0.031-0.174-0.096-0.238c-0.064-0.063-0.145-0.096-0.239-0.096
		s-0.174,0.032-0.237,0.096s-0.097,0.145-0.097,0.238c0,0.095,0.032,0.175,0.097,0.239C36.297,20.586,36.376,20.618,36.471,20.618z
		 M31.457,18.945c-0.187,0-0.344-0.064-0.475-0.197c-0.131-0.13-0.195-0.287-0.195-0.471V16.27c0-0.184,0.064-0.341,0.195-0.472
		c0.131-0.132,0.288-0.196,0.475-0.196h2.005c0.185,0,0.342,0.064,0.474,0.196c0.131,0.131,0.195,0.288,0.195,0.472v2.008
		c0,0.184-0.064,0.341-0.195,0.471c-0.132,0.133-0.289,0.197-0.474,0.197L31.457,18.945L31.457,18.945z M32.792,17.273
		c0.096,0,0.175-0.031,0.237-0.096c0.064-0.064,0.098-0.145,0.098-0.238c0-0.095-0.032-0.174-0.098-0.238
		c-0.063-0.064-0.143-0.097-0.237-0.097s-0.174,0.032-0.238,0.097c-0.063,0.064-0.096,0.144-0.096,0.238s0.032,0.174,0.096,0.238
		C32.619,17.242,32.699,17.273,32.792,17.273z M31.457,18.168l0.668-0.895l0.752,1.004h0.585V16.27h-2.005V18.168z"/>
	<path fill="#292F41" d="M17.398,21.779c-0.192,0-0.358-0.069-0.498-0.207c-0.138-0.139-0.206-0.304-0.206-0.498v-3.871
		c0-0.193,0.068-0.359,0.206-0.496c0.14-0.139,0.306-0.208,0.498-0.208h0.703v-0.704c0-0.193,0.069-0.358,0.207-0.496
		c0.138-0.139,0.304-0.207,0.497-0.207h0.704c0.193,0,0.359,0.068,0.496,0.207c0.14,0.138,0.208,0.303,0.208,0.496v0.704h0.704
		c0.192,0,0.358,0.069,0.496,0.208c0.139,0.137,0.207,0.303,0.207,0.496v3.871c0,0.194-0.068,0.359-0.207,0.498
		c-0.138,0.138-0.304,0.207-0.496,0.207c0,0.1-0.034,0.183-0.103,0.25c-0.065,0.068-0.149,0.102-0.251,0.102
		c-0.1,0-0.183-0.033-0.251-0.102c-0.065-0.067-0.101-0.15-0.101-0.25H18.1c0,0.1-0.033,0.183-0.102,0.25
		c-0.066,0.068-0.15,0.102-0.251,0.102s-0.184-0.033-0.249-0.102C17.431,21.962,17.398,21.879,17.398,21.779z M17.398,21.074h3.521
		v-3.871h-3.521V21.074z M18.805,16.499h0.704v-0.704h-0.704V16.499z"/>
</g>
</svg>
